<svg width="180px" height="70px" viewBox="0 0 180 70" version="1.1">

  <g id="npm-logo-svg" stroke="none" stroke-width="1" fill="none" fill-rule="evenodd">
    <rect fill="#CB0000" x="0" y="0" width="10" height="10"></rect>
    <rect fill="#CB0000" x="10" y="0" width="10" height="10"></rect>
    <rect fill="#CB0000" x="20" y="0" width="10" height="10"></rect>
    <rect fill="#CB0000" x="30" y="0" width="10" height="10"></rect>
    <rect fill="#CB0000" x="40" y="0" width="10" height="10"></rect>
    <rect fill="#CB0000" x="50" y="0" width="10" height="10"></rect>
    <rect fill="#CB0000" x="60" y="0" width="10" height="10"></rect>
    <rect fill="#CB0000" x="70" y="0" width="10" height="10"></rect>
    <rect fill="#CB0000" x="80" y="0" width="10" height="10"></rect>
    <rect fill="#CB0000" x="90" y="0" width="10" height="10"></rect>
    <rect fill="#CB0000" x="100" y="0" width="10" height="10"></rect>
    <rect fill="#CB0000" x="110" y="0" width="10" height="10"></rect>
    <rect fill="#CB0000" x="120" y="0" width="10" height="10"></rect>
    <rect fill="#CB0000" x="130" y="0" width="10" height="10"></rect>
    <rect fill="#CB0000" x="140" y="0" width="10" height="10"></rect>
    <rect fill="#CB0000" x="150" y="0" width="10" height="10"></rect>
    <rect fill="#CB0000" x="160" y="0" width="10" height="10"></rect>
    <rect fill="#CB0000" x="170" y="0" width="10" height="10"></rect>

    <rect fill="#CB0000" x="0" y="10" width="10" height="10"></rect>
    <rect fill="#CB0000" x="50" y="10" width="10" height="10"></rect>
    <rect fill="#CB0000" x="100" y="10" width="10" height="10"></rect>
    <rect fill="#CB0000" x="170" y="10" width="10" height="10"></rect>

    <rect fill="#CB0000" x="0" y="20" width="10" height="10"></rect>
    <rect fill="#CB0000" x="30" y="20" width="10" height="10"></rect>
    <rect fill="#CB0000" x="50" y="20" width="10" height="10"></rect>
    <rect fill="#CB0000" x="80" y="20" width="10" height="10"></rect>
    <rect fill="#CB0000" x="100" y="20" width="10" height="10"></rect>
    <rect fill="#CB0000" x="130" y="20" width="10" height="10"></rect>
    <rect fill="#CB0000" x="150" y="20" width="10" height="10"></rect>
    <rect fill="#CB0000" x="170" y="20" width="10" height="10"></rect>

    <rect fill="#CB0000" x="0" y="30" width="10" height="10"></rect>
    <rect fill="#CB0000" x="30" y="30" width="10" height="10"></rect>
    <rect fill="#CB0000" x="50" y="30" width="10" height="10"></rect>
    <rect fill="#CB0000" x="80" y="30" width="10" height="10"></rect>
    <rect fill="#CB0000" x="100" y="30" width="10" height="10"></rect>
    <rect fill="#CB0000" x="130" y="30" width="10" height="10"></rect>
    <rect fill="#CB0000" x="150" y="30" width="10" height="10"></rect>
    <rect fill="#CB0000" x="170" y="30" width="10" height="10"></rect>

    <rect fill="#CB0000" x="0" y="40" width="10" height="10"></rect>
    <rect fill="#CB0000" x="30" y="40" width="10" height="10"></rect>
    <rect fill="#CB0000" x="50" y="40" width="10" height="10"></rect>
    <rect fill="#CB0000" x="100" y="40" width="10" height="10"></rect>
    <rect fill="#CB0000" x="130" y="40" width="10" height="10"></rect>
    <rect fill="#CB0000" x="150" y="40" width="10" height="10"></rect>
    <rect fill="#CB0000" x="170" y="40" width="10" height="10"></rect>

    <rect fill="#CB0000" x="0" y="50" width="10" height="10"></rect>
    <rect fill="#CB0000" x="10" y="50" width="10" height="10"></rect>
    <rect fill="#CB0000" x="20" y="50" width="10" height="10"></rect>
    <rect fill="#CB0000" x="30" y="50" width="10" height="10"></rect>
    <rect fill="#CB0000" x="40" y="50" width="10" height="10"></rect>
    <rect fill="#CB0000" x="50" y="50" width="10" height="10"></rect>
    <rect fill="#CB0000" x="80" y="50" width="10" height="10"></rect>
    <rect fill="#CB0000" x="90" y="50" width="10" height="10"></rect>
    <rect fill="#CB0000" x="100" y="50" width="10" height="10"></rect>
    <rect fill="#CB0000" x="110" y="50" width="10" height="10"></rect>
    <rect fill="#CB0000" x="120" y="50" width="10" height="10"></rect>
    <rect fill="#CB0000" x="130" y="50" width="10" height="10"></rect>
    <rect fill="#CB0000" x="140" y="50" width="10" height="10"></rect>
    <rect fill="#CB0000" x="150" y="50" width="10" height="10"></rect>
    <rect fill="#CB0000" x="160" y="50" width="10" height="10"></rect>
    <rect fill="#CB0000" x="170" y="50" width="10" height="10"></rect>

    <rect fill="#CB0000" x="50" y="60" width="10" height="10"></rect>
    <rect fill="#CB0000" x="60" y="60" width="10" height="10"></rect>
    <rect fill="#CB0000" x="70" y="60" width="10" height="10"></rect>
    <rect fill="#CB0000" x="80" y="60" width="10" height="10"></rect>
  </g>
</svg>
