<?xml version="1.0" encoding="UTF-8" standalone="no"?>
<svg width="180px" height="70px" viewBox="0 0 180 70" version="1.1" xmlns="http://www.w3.org/2000/svg"  >
    
    
    
    
    <g id="Page-1" stroke="none" stroke-width="1"  fill-rule="evenodd" >
        <rect id="Rectangle-1"   x="0" y="0" width="10" height="10"></rect>
        <rect id="Rectangle-2"   x="10" y="0" width="10" height="10"></rect>
        <rect id="Rectangle-4"   x="20" y="0" width="10" height="10"></rect>
        <rect id="Rectangle-3"   x="30" y="0" width="10" height="10"></rect>
        <rect id="Rectangle-8"   x="40" y="0" width="10" height="10"></rect>
        <rect id="Rectangle-7"   x="50" y="0" width="10" height="10"></rect>
        <rect id="Rectangle-6"   x="60" y="0" width="10" height="10"></rect>
        <rect id="Rectangle-5"   x="70" y="0" width="10" height="10"></rect>
        <rect id="Rectangle-16"   x="80" y="0" width="10" height="10"></rect>
        <rect id="Rectangle-15"   x="90" y="0" width="10" height="10"></rect>
        <rect id="Rectangle-14"   x="100" y="0" width="10" height="10"></rect>
        <rect id="Rectangle-13"   x="110" y="0" width="10" height="10"></rect>
        <rect id="Rectangle-12"   x="120" y="0" width="10" height="10"></rect>
        <rect id="Rectangle-11"   x="130" y="0" width="10" height="10"></rect>
        <rect id="Rectangle-10"   x="140" y="0" width="10" height="10"></rect>
        <rect id="Rectangle-9"   x="150" y="0" width="10" height="10"></rect>
        <rect id="Rectangle-18"   x="160" y="0" width="10" height="10"></rect>
        <rect id="Rectangle-17"   x="170" y="0" width="10" height="10"></rect>
        <rect id="Rectangle-74"   x="50" y="60" width="10" height="10"></rect>
        <rect id="Rectangle-73"   x="60" y="60" width="10" height="10"></rect>
        <rect id="Rectangle-72"   x="70" y="60" width="10" height="10"></rect>
        <rect id="Rectangle-71"   x="80" y="60" width="10" height="10"></rect>
        <rect id="Rectangle-63"   x="0" y="50" width="10" height="10"></rect>
        <rect id="Rectangle-62"   x="10" y="50" width="10" height="10"></rect>
        <rect id="Rectangle-61"   x="20" y="50" width="10" height="10"></rect>
        <rect id="Rectangle-60"   x="30" y="50" width="10" height="10"></rect>
        <rect id="Rectangle-59"   x="40" y="50" width="10" height="10"></rect>
        <rect id="Rectangle-58"   x="50" y="50" width="10" height="10"></rect>
        <rect id="Rectangle-54"   x="80" y="50" width="10" height="10"></rect>
        <rect id="Rectangle-52"   x="90" y="50" width="10" height="10"></rect>
        <rect id="Rectangle-50"   x="100" y="50" width="10" height="10"></rect>
        <rect id="Rectangle-49"   x="110" y="50" width="10" height="10"></rect>
        <rect id="Rectangle-47"   x="120" y="50" width="10" height="10"></rect>
        <rect id="Rectangle-46"   x="130" y="50" width="10" height="10"></rect>
        <rect id="Rectangle-42"   x="140" y="50" width="10" height="10"></rect>
        <rect id="Rectangle-41"   x="150" y="50" width="10" height="10"></rect>
        <rect id="Rectangle-33"   x="160" y="50" width="10" height="10"></rect>
        <rect id="Rectangle-27"   x="170" y="50" width="10" height="10"></rect>
        <rect id="Rectangle-56"   x="0" y="40" width="10" height="10"></rect>
        <rect id="Rectangle-53"   x="30" y="40" width="10" height="10"></rect>
        <rect id="Rectangle-51"   x="50" y="40" width="10" height="10"></rect>
        <rect id="Rectangle-44"   x="100" y="40" width="10" height="10"></rect>
        <rect id="Rectangle-38"   x="130" y="40" width="10" height="10"></rect>
        <rect id="Rectangle-32"   x="150" y="40" width="10" height="10"></rect>
        <rect id="Rectangle-23"   x="170" y="40" width="10" height="10"></rect>
        <rect id="Rectangle-48"   x="0" y="30" width="10" height="10"></rect>
        <rect id="Rectangle-45"   x="30" y="30" width="10" height="10"></rect>
        <rect id="Rectangle-43"   x="50" y="30" width="10" height="10"></rect>
        <rect id="Rectangle-39"   x="80" y="30" width="10" height="10"></rect>
        <rect id="Rectangle-35"   x="100" y="30" width="10" height="10"></rect>
        <rect id="Rectangle-29"   x="130" y="30" width="10" height="10"></rect>
        <rect id="Rectangle-25"   x="150" y="30" width="10" height="10"></rect>
        <rect id="Rectangle-21"   x="170" y="30" width="10" height="10"></rect>
        <rect id="Rectangle-40"   x="0" y="20" width="10" height="10"></rect>
        <rect id="Rectangle-37"   x="30" y="20" width="10" height="10"></rect>
        <rect id="Rectangle-34"   x="50" y="20" width="10" height="10"></rect>
        <rect id="Rectangle-30"   x="80" y="20" width="10" height="10"></rect>
        <rect id="Rectangle-28"   x="100" y="20" width="10" height="10"></rect>
        <rect id="Rectangle-24"   x="130" y="20" width="10" height="10"></rect>
        <rect id="Rectangle-22"   x="150" y="20" width="10" height="10"></rect>
        <rect id="Rectangle-20"   x="170" y="20" width="10" height="10"></rect>
        <rect id="Rectangle-36"   x="0" y="10" width="10" height="10"></rect>
        <rect id="Rectangle-55"   x="10" y="10" width="10" height="10"></rect>
        <rect id="Rectangle-55"   x="60" y="10" width="10" height="10"></rect>
        <rect id="Rectangle-55"   x="110" y="10" width="10" height="10"></rect>
        <rect id="Rectangle-55"   x="150" y="10" width="10" height="10"></rect>
        <rect id="Rectangle-55"   x="10" y="20" width="10" height="10"></rect>
        <rect id="Rectangle-55"   x="60" y="20" width="10" height="10"></rect>
        <rect id="Rectangle-55"   x="110" y="20" width="10" height="10"></rect>
        <rect id="Rectangle-55"   x="10" y="30" width="10" height="10"></rect>
        <rect id="Rectangle-55"   x="60" y="30" width="10" height="10"></rect>
        <rect id="Rectangle-55"   x="110" y="30" width="10" height="10"></rect>
        <rect id="Rectangle-55"   x="10" y="40" width="10" height="10"></rect>
        <rect id="Rectangle-55"   x="60" y="40" width="10" height="10"></rect>
        <rect id="Rectangle-55"   x="60" y="50" width="10" height="10"></rect>
        <rect id="Rectangle-55"   x="110" y="40" width="10" height="10"></rect>
        <rect id="Rectangle-55"   x="20" y="10" width="10" height="10"></rect>
        <rect id="Rectangle-55"   x="70" y="10" width="10" height="10"></rect>
        <rect id="Rectangle-55"   x="120" y="10" width="10" height="10"></rect>
        <rect id="Rectangle-55"   x="160" y="10" width="10" height="10"></rect>
        <rect id="Rectangle-55"   x="20" y="20" width="10" height="10"></rect>
        <rect id="Rectangle-55"   x="70" y="20" width="10" height="10"></rect>
        <rect id="Rectangle-55"   x="120" y="20" width="10" height="10"></rect>
        <rect id="Rectangle-55"   x="160" y="20" width="10" height="10"></rect>
        <rect id="Rectangle-55"   x="20" y="30" width="10" height="10"></rect>
        <rect id="Rectangle-55"   x="70" y="30" width="10" height="10"></rect>
        <rect id="Rectangle-55"   x="120" y="30" width="10" height="10"></rect>
        <rect id="Rectangle-55"   x="160" y="30" width="10" height="10"></rect>
        <rect id="Rectangle-55"   x="20" y="40" width="10" height="10"></rect>
        <rect id="Rectangle-55"   x="70" y="40" width="10" height="10"></rect>
        <rect id="Rectangle-55"   x="70" y="50" width="10" height="10"></rect>
        <rect id="Rectangle-55"   x="120" y="40" width="10" height="10"></rect>
        <rect id="Rectangle-55"   x="160" y="40" width="10" height="10"></rect>
        <rect id="Rectangle-55"   x="30" y="10" width="10" height="10"></rect>
        <rect id="Rectangle-55"   x="80" y="10" width="10" height="10"></rect>
        <rect id="Rectangle-55"   x="130" y="10" width="10" height="10"></rect>
        <rect id="Rectangle-55"   x="170" y="10" width="10" height="10"></rect>
        <rect id="Rectangle-55"   x="80" y="40" width="10" height="10"></rect>
        <rect id="Rectangle-55"   x="40" y="10" width="10" height="10"></rect>
        <rect id="Rectangle-55"   x="90" y="10" width="10" height="10"></rect>
        <rect id="Rectangle-55"   x="140" y="10" width="10" height="10"></rect>
        <rect id="Rectangle-55"   x="40" y="20" width="10" height="10"></rect>
        <rect id="Rectangle-55"   x="90" y="20" width="10" height="10"></rect>
        <rect id="Rectangle-55"   x="140" y="20" width="10" height="10"></rect>
        <rect id="Rectangle-55"   x="40" y="30" width="10" height="10"></rect>
        <rect id="Rectangle-55"   x="90" y="30" width="10" height="10"></rect>
        <rect id="Rectangle-55"   x="140" y="30" width="10" height="10"></rect>
        <rect id="Rectangle-55"   x="40" y="40" width="10" height="10"></rect>
        <rect id="Rectangle-55"   x="90" y="40" width="10" height="10"></rect>
        <rect id="Rectangle-55"   x="140" y="40" width="10" height="10"></rect>
        <rect id="Rectangle-31"   x="50" y="10" width="10" height="10"></rect>
        <rect id="Rectangle-26"   x="100" y="10" width="10" height="10"></rect>
        <rect id="Rectangle-19"   x="170" y="10" width="10" height="10"></rect>
    </g>
</svg>
